#!OML:ASF E:/inclinewalkrobotboard/Project1/Captureday1/Session1/subject1.ASF
:FULLY-SPECIFIED
:DEGREES
38
root 0 0 0 0.44631378137635025 23.07202274555687 11.488159363776306
lowerback -5.419422541364078 -5.227709092023005 -6.975072165762459
upperback -8.827326392072798 -6.57171444602516 6.670073070622292
thorax -6.113339688749594 -2.14448404961385 11.040856414364843
lowerneck -4.276289927050068 -8.141912844306471 -6.27497067120816
upperneck 32.12322847298238 -10.318402023268689 0.5464668316108177
head 11.65277413568425 -5.330839342454875 -0.11734352568813367
rclavicle 1.6783774045902983E-15 -1.1744515436805655E-15
rhumerus 119.72782439261535 -8.76377204521932 -103.63636516922243
rradius 18.011742042783872
rwrist 58.16179210358228
rhand 18.006275403192742 -13.16926611803102
rfingers 7.125019999999973
rthumb 42.579629058866885 -37.70716971323941
lclavicle 4.692349738656336E-15 3.905310165451229E-15
lhumerus 52.199220766770395 42.91564972300144 10.244690504894727
lradius 12.439792636861046
lwrist -37.77777848638125
lhand -7.974344073492262 27.458841117825752
lfingers 7.125019999999958
lthumb 18.001896373120314 57.58450762740464
rfemur 160.3102469122759 -209.15430992537912 -177.05021193635076
rtibia 36.88764261072796
rfoot -85.19416728358921 -7.69944141028996
rtoes 45.803844545817164
lfemur -79.77134243919868 16.652957761694587 -64.24305964830343
ltibia 70.69805106334096
lfoot 4.791691256882714 33.851738157486665
ltoes -2.6215925871174477
39
root 0 0 0 0.3043410546070504 22.83560606541538 11.651305029247714
lowerback -5.411329704233224 -5.236414838306354 -7.040282343134197
upperback -8.813522119616419 -6.584372658811106 6.645472349100638
thorax -6.114308822514833 -2.1431979017630027 11.052180023905517
lowerneck -4.28307303157598 -8.113196008971732 -6.253446324609691
upperneck 32.077403320919814 -10.280141464931281 0.5672611749429683
head 11.633588133792271 -5.311490433040827 -0.11018556338495977
rclavicle 1.8573781245324088E-15 -1.187911408481447E-15
rhumerus 120.50914351054307 -7.723477791936661 -105.12851479900209
rradius 18.691687633015555
rwrist 57.340498605538194
rhand 17.704335241409535 -12.895369558832
rfingers 7.1250199999999735
rthumb 42.286652525082005 -37.45800524081237
lclavicle 4.623112760720779E-15 3.968505277151855E-15
lhumerus 53.04747684238008 42.51495111160093 10.893605329371141
lradius 13.148933994332143
lwrist -36.8690834641127
lhand -8.150240645426111 27.222173570115373
lfingers 7.125019999999961
lthumb 17.8300376849241 57.333224434705215
rfemur 160.46849509015468 -209.4494672661972 -177.22549157174063
rtibia 37.36507629558142
rfoot -85.01049061820243 -7.759050347340651
rtoes 45.64616953955429
lfemur -79.83949729623134 16.634032215114722 -64.30255605630366
ltibia 70.54100580799891
lfoot 4.708467501599575 33.97339524189469
ltoes -2.5263963239111114
40
root 0 0 0 0.11652207587470542 22.53077551185994 11.875073831190528
lowerback -5.406021158788769 -5.24814925584597 -7.13135090640787
upperback -8.799959054689722 -6.601447554089584 6.6140059878505895
thorax -6.118304309300934 -2.141063542468399 11.071386102679048
lowerneck -4.285310490706755 -8.071714030696892 -6.223533459506743
upperneck 32.01111335048885 -10.223987178244414 0.5961767082107632
head 11.60465908502723 -5.283416556456664 -0.10028832794252263
rclavicle 2.301404104044136E-15 -1.0952160304076267E-15
rhumerus 121.63525609600211 -5.932694980826074 -107.68396163994404
rradius 19.802845459603628
rwrist 55.99648022569702
rhand 17.167994592936665 -12.40168244562402
rfingers 7.125019999999974
rthumb 41.76675648778381 -37.00846837545026
lclavicle 4.56832864680442E-15 4.151722094332302E-15
lhumerus 54.22628262819082 41.78728971706055 11.996131253734873
lradius 14.345327208942702
lwrist -35.377416990768545
lhand -8.393011725459846 26.84903636130091
lfingers 7.1250199999999655
lthumb 17.591600122183475 56.92853791388542
rfemur 160.739323708183 -210.02690403976283 -177.61197703021293
rtibia 38.42311561316518
rfoot -84.66071647584661 -7.692425505447151
rtoes 45.426604308230786
lfemur -79.9824139392777 16.629510381560365 -64.39800791395581
ltibia 70.25778671868665
lfoot 4.608720322606839 34.18873160412332
ltoes -2.3314243291429655
41
root 0 0 0 -0.03471580014859299 22.280256384538102 12.051328618297381
lowerback -5.399198469931964 -5.256581042505145 -7.203262580450611
upperback -8.783623409527921 -6.613848732319521 6.58698948680661
thorax -6.116785373533386 -2.139095336872251 11.084026788824108
lowerneck -4.294826720245614 -8.041061451825987 -6.200420716379083
upperneck 31.960287849780403 -10.182731235411985 0.6168964781661788
head 11.583643213154968 -5.262643221946224 -0.09297668174027529
rclavicle 2.588198423477295E-15 -1.2062681169552871E-15
rhumerus 122.44738424053293 -4.2964671489601685 -110.22252059421933
rradius 20.642023746560543
rwrist 54.74989513715924
rhand 16.740031358734875 -11.999454746973958
rfingers 7.125019999999975
rthumb 41.351607520107635 -36.6391169193561
lclavicle 4.517095510625498E-15 4.180149598167793E-15
lhumerus 55.533924230826145 41.17633616494846 13.152158395563148
lradius 15.407547640926051
lwrist -33.89180016477822
lhand -8.669870903205503 26.502171637642974
lfingers 7.12501999999997
lthumb 17.32177100649226 56.55928622752798
rfemur 160.95088383259446 -210.39297228382534 -177.8626652339422
rtibia 39.03980698406308
rfoot -84.40036182367345 -7.67829465279913
rtoes 45.28628510515412
lfemur -80.12048895766097 16.65115235339963 -64.4240399544822
ltibia 70.1641072579611
lfoot 4.491686486525079 34.31026500218704
ltoes -2.1776299569275466
42
root 0 0 0 -0.19176092066878425 22.01090294761396 12.23390151624226
lowerback -5.391992645397512 -5.264786240035871 -7.277977833921414
upperback -8.766362910993236 -6.6259718423831 6.557907256393134
thorax -6.115053377515755 -2.1366845089301245 11.096005478665132
lowerneck -4.3056916553182845 -8.00851517530063 -6.175828943258816
upperneck 31.906535554535896 -10.139417911433359 0.6398834660251036
head 11.561638802898472 -5.240651255026572 -0.08492557885810226
rclavicle 3.013424708113327E-15 -1.2476717009019062E-15
rhumerus 123.31689653503285 -2.313234507546653 -113.37545769358813
rradius 21.59597135517358
rwrist 53.2880673701739
rhand 16.21042513350567 -11.502312531323634
rfingers 7.125019999999976
rthumb 40.83800024155967 -36.18322330655499
lclavicle 4.506695950171399E-15 4.278903739648755E-15
lhumerus 57.098888294899396 40.39947738527835 14.709892457576387
lradius 16.77773777223334
lwrist -31.990369412076383
lhand -9.027612042486908 26.04679467248145
lfingers 7.125019999999975
lthumb 16.97321944945547 56.07643960459196
rfemur 161.21729706739362 -210.79913461226266 -178.1524714875831
rtibia 39.679694786193515
rfoot -84.11101386965095 -7.6311847539568785
rtoes 45.13420658789762
lfemur -80.29139490754373 16.680371269784064 -64.45414599789214
ltibia 70.04582760942404
lfoot 4.37880306546969 34.45535220609258
ltoes -1.9948799267706292
43
root 0 0 0 -0.36008908997191114 21.71612003270449 12.429244725787045
lowerback -5.384020187982844 -5.273251568327115 -7.358221113785037
upperback -8.746439820114254 -6.638532190827324 6.525886740547769
thorax -6.111782471771242 -2.1339419863611697 11.107947992945736
lowerneck -4.319788778681869 -7.974168601460468 -6.149522162098553
upperneck 31.849602851107935 -10.093970559577661 0.6643283965869085
head 11.538711979470865 -5.2174619440272 -0.0763119933113765
rclavicle 3.501672971369884E-15 -1.3029501907688658E-15
rhumerus 124.36592454590708 0.05895447713017887 -117.23384976273621
rradius 22.71502724874169
rwrist 51.59391985365387
rhand 15.537435747693959 -10.881274873451948
rfingers 7.125019999999977
rthumb 40.186268808713535 -35.61742005533806
lclavicle 4.527152041248021E-15 4.375967424689805E-15
lhumerus 59.145194273098596 39.37683663082967 16.87817003455255
lradius 18.60702007029469
lwrist -29.430510224156183
lhand -9.511011474366537 25.429834686294875
lfingers 7.125019999999982
lthumb 16.502509000069605 55.42388518882649
rfemur 161.55048293231158 -211.25835824806626 -178.4954644464746
rtibia 40.3737287609904
rfoot -83.77079101359193 -7.531185038611154
rtoes 44.976521608094615
lfemur -80.519163849765 16.72112807302907 -64.47908417125817
ltibia 69.91814149593425
lfoot 4.251776747611601 34.62705794472927
ltoes -1.7693813076847462
44
root 0 0 0 -0.6078980600127366 21.277429526186847 12.724679682218563
lowerback -5.377185727412469 -5.28623887644255 -7.481211618810505
upperback -8.720561820119062 -6.657763319583206 6.478820874684564
thorax -6.1085580202284415 -2.129685743460776 11.128554422716052
lowerneck -4.336730903800647 -7.921108376001998 -6.109594538687276
upperneck 31.762580649910085 -10.023424355300769 0.7019056054228279
head 11.502897581743312 -5.181614940923198 -0.0631078450995568
rclavicle 4.343035544159142E-15 -1.3366572682045256E-15
rhumerus 126.4731491672763 4.032142850925251 -123.75780809545523
rradius 24.786698556658102
rwrist 48.78720387275056
rhand 14.187883788221729 -9.674259626212818
rfingers 7.125019999999978
rthumb 38.88340466498964 -34.53175965362357
lclavicle 4.7481830522881976E-15 4.566848140899774E-15
lhumerus 63.05449560583543 37.172648249281124 21.256345562095195
lradius 22.51357547125813
lwrist -24.275891878219543
lhand -10.31884852717496 24.10308542132727
lfingers 7.125019999999997
lthumb 15.711608957086971 53.99569106848263
rfemur 162.19990956345177 -212.18534878776478 -179.21948678429936
rtibia 41.85899898420923
rfoot -83.08281954151734 -7.205340833380049
rtoes 44.73217907949942
lfemur -81.0231001757716 16.823248716555142 -64.5077619852683
ltibia 69.62659661246953
lfoot 4.05369659472256 34.98003362412123
ltoes -1.2938530033338456
45
root 0 0 0 -0.7483500079275629 21.03139147278976 12.89492078025375
lowerback -5.375360143223225 -5.2949935639016665 -7.551995884391921
upperback -8.7074624634754 -6.670552585165521 6.453394001752024
thorax -6.107223214010588 -2.128006953009785 11.142221533228803
lowerneck -4.344581186840206 -7.892339855609876 -6.087993483924389
upperneck 31.71602373503358 -9.984998337845434 0.7227591244040572
head 11.483352153922583 -5.162173179360753 -0.055788997379922156
rclavicle 4.653467777735957E-15 -1.3247382728541875E-15
rhumerus 128.21284104177454 6.72661786539927 -128.27758935480688
rradius 26.42072012926015
rwrist 46.72240326973743
rhand 13.06465531059419 -8.68268828621772
rfingers 7.125019999999978
rthumb 37.80113462141743 -33.64648859957399
lclavicle 5.030027531907182E-15 4.636651628517863E-15
lhumerus 66.24887111682791 35.209176579139566 24.63336330575882
lradius 26.02646696327158
lwrist -20.156172363038827
lhand -10.652509262186712 22.889016300966876
lfingers 7.125020000000007
lthumb 15.376433722625771 52.64533208899766
rfemur 162.75521600131793 -212.9381008118951 -179.81659667739012
rtibia 43.076518612034484
rfoot -82.43479421210976 -7.010132959365331
rtoes 44.52519988336081
lfemur -81.52724128193422 16.98650014782741 -64.45892763026066
ltibia 69.4833388625225
lfoot 3.907597581771519 35.2435957380811
ltoes -0.8313508185554497
